<mxfile host="app.diagrams.net" agent="Mozilla/5.0 (Windows NT 10.0; Win64; x64) AppleWebKit/537.36 (KHTML, like Gecko) Chrome/130.0.0.0 Safari/537.36" version="24.8.4">
  <diagram name="Page-1" id="Dw_O_kOMTTkD0lYG1IQG">
    <mxGraphModel dx="1573" dy="1295" grid="0" gridSize="10" guides="1" tooltips="1" connect="1" arrows="1" fold="1" page="0" pageScale="1" pageWidth="850" pageHeight="1100" math="0" shadow="0">
      <root>
        <mxCell id="0" />
        <mxCell id="1" parent="0" />
        <mxCell id="aZw0R3kb8yAvgMo9U8XI-13" style="edgeStyle=orthogonalEdgeStyle;rounded=0;orthogonalLoop=1;jettySize=auto;html=1;exitX=0.75;exitY=1;exitDx=0;exitDy=0;entryX=0.5;entryY=0;entryDx=0;entryDy=0;endArrow=none;endFill=0;" edge="1" parent="1" source="aZw0R3kb8yAvgMo9U8XI-1" target="aZw0R3kb8yAvgMo9U8XI-12">
          <mxGeometry relative="1" as="geometry" />
        </mxCell>
        <mxCell id="aZw0R3kb8yAvgMo9U8XI-17" style="edgeStyle=orthogonalEdgeStyle;rounded=0;orthogonalLoop=1;jettySize=auto;html=1;exitX=1;exitY=0.5;exitDx=0;exitDy=0;entryX=0.5;entryY=0;entryDx=0;entryDy=0;endArrow=none;endFill=0;" edge="1" parent="1" source="aZw0R3kb8yAvgMo9U8XI-1" target="aZw0R3kb8yAvgMo9U8XI-15">
          <mxGeometry relative="1" as="geometry" />
        </mxCell>
        <mxCell id="aZw0R3kb8yAvgMo9U8XI-49" style="edgeStyle=orthogonalEdgeStyle;rounded=0;orthogonalLoop=1;jettySize=auto;html=1;exitX=1;exitY=0;exitDx=0;exitDy=0;entryX=0;entryY=0.5;entryDx=0;entryDy=0;endArrow=none;endFill=0;" edge="1" parent="1" source="aZw0R3kb8yAvgMo9U8XI-1" target="aZw0R3kb8yAvgMo9U8XI-48">
          <mxGeometry relative="1" as="geometry">
            <Array as="points">
              <mxPoint x="380" y="280" />
              <mxPoint x="593" y="280" />
              <mxPoint x="593" y="386" />
            </Array>
          </mxGeometry>
        </mxCell>
        <mxCell id="aZw0R3kb8yAvgMo9U8XI-1" value="employee" style="rounded=0;whiteSpace=wrap;html=1;fillColor=#FF0000;" vertex="1" parent="1">
          <mxGeometry x="260" y="300" width="120" height="60" as="geometry" />
        </mxCell>
        <mxCell id="aZw0R3kb8yAvgMo9U8XI-2" value="&lt;u&gt;ID&lt;/u&gt;" style="ellipse;whiteSpace=wrap;html=1;strokeColor=#B09500;fillColor=#FFF71A;fontColor=#000000;" vertex="1" parent="1">
          <mxGeometry x="120" y="190" width="100" height="60" as="geometry" />
        </mxCell>
        <mxCell id="aZw0R3kb8yAvgMo9U8XI-6" style="edgeStyle=orthogonalEdgeStyle;rounded=0;orthogonalLoop=1;jettySize=auto;html=1;exitX=1;exitY=0.5;exitDx=0;exitDy=0;endArrow=none;endFill=0;entryX=0.426;entryY=0.032;entryDx=0;entryDy=0;entryPerimeter=0;" edge="1" parent="1" source="aZw0R3kb8yAvgMo9U8XI-3" target="aZw0R3kb8yAvgMo9U8XI-1">
          <mxGeometry relative="1" as="geometry" />
        </mxCell>
        <mxCell id="aZw0R3kb8yAvgMo9U8XI-3" value="name" style="ellipse;whiteSpace=wrap;html=1;strokeColor=#B09500;fillColor=#FFF71A;fontColor=#000000;" vertex="1" parent="1">
          <mxGeometry x="220" y="130" width="100" height="60" as="geometry" />
        </mxCell>
        <mxCell id="aZw0R3kb8yAvgMo9U8XI-4" value="position" style="ellipse;whiteSpace=wrap;html=1;strokeColor=#B09500;fillColor=#FFF71A;fontColor=#000000;" vertex="1" parent="1">
          <mxGeometry x="340" y="150" width="100" height="60" as="geometry" />
        </mxCell>
        <mxCell id="aZw0R3kb8yAvgMo9U8XI-5" style="edgeStyle=orthogonalEdgeStyle;rounded=0;orthogonalLoop=1;jettySize=auto;html=1;exitX=1;exitY=0.5;exitDx=0;exitDy=0;entryX=0.75;entryY=0;entryDx=0;entryDy=0;endArrow=none;endFill=0;" edge="1" parent="1" source="aZw0R3kb8yAvgMo9U8XI-4" target="aZw0R3kb8yAvgMo9U8XI-1">
          <mxGeometry relative="1" as="geometry" />
        </mxCell>
        <mxCell id="aZw0R3kb8yAvgMo9U8XI-7" style="edgeStyle=orthogonalEdgeStyle;rounded=0;orthogonalLoop=1;jettySize=auto;html=1;exitX=1;exitY=0.5;exitDx=0;exitDy=0;entryX=0.15;entryY=0.02;entryDx=0;entryDy=0;entryPerimeter=0;endArrow=none;endFill=0;" edge="1" parent="1" source="aZw0R3kb8yAvgMo9U8XI-2" target="aZw0R3kb8yAvgMo9U8XI-1">
          <mxGeometry relative="1" as="geometry" />
        </mxCell>
        <mxCell id="aZw0R3kb8yAvgMo9U8XI-16" style="edgeStyle=orthogonalEdgeStyle;rounded=0;orthogonalLoop=1;jettySize=auto;html=1;exitX=0.75;exitY=0;exitDx=0;exitDy=0;entryX=0.5;entryY=1;entryDx=0;entryDy=0;endArrow=none;endFill=0;" edge="1" parent="1" source="aZw0R3kb8yAvgMo9U8XI-8" target="aZw0R3kb8yAvgMo9U8XI-15">
          <mxGeometry relative="1" as="geometry" />
        </mxCell>
        <mxCell id="aZw0R3kb8yAvgMo9U8XI-8" value="department" style="rounded=0;whiteSpace=wrap;html=1;fillColor=#e51400;fontColor=#ffffff;strokeColor=#B20000;" vertex="1" parent="1">
          <mxGeometry x="410" y="520" width="120" height="60" as="geometry" />
        </mxCell>
        <mxCell id="aZw0R3kb8yAvgMo9U8XI-10" value="&lt;u&gt;name&lt;/u&gt;" style="ellipse;whiteSpace=wrap;html=1;strokeColor=#B09500;fillColor=#FFF71A;fontColor=#000000;" vertex="1" parent="1">
          <mxGeometry x="170" y="660" width="100" height="60" as="geometry" />
        </mxCell>
        <mxCell id="aZw0R3kb8yAvgMo9U8XI-11" style="edgeStyle=orthogonalEdgeStyle;rounded=0;orthogonalLoop=1;jettySize=auto;html=1;exitX=0.5;exitY=0;exitDx=0;exitDy=0;entryX=0.065;entryY=0.968;entryDx=0;entryDy=0;entryPerimeter=0;endArrow=none;endFill=0;" edge="1" parent="1" source="aZw0R3kb8yAvgMo9U8XI-10" target="aZw0R3kb8yAvgMo9U8XI-8">
          <mxGeometry relative="1" as="geometry" />
        </mxCell>
        <mxCell id="aZw0R3kb8yAvgMo9U8XI-14" style="edgeStyle=orthogonalEdgeStyle;rounded=0;orthogonalLoop=1;jettySize=auto;html=1;exitX=0.5;exitY=1;exitDx=0;exitDy=0;entryX=0.5;entryY=0;entryDx=0;entryDy=0;endArrow=none;endFill=0;" edge="1" parent="1" source="aZw0R3kb8yAvgMo9U8XI-12" target="aZw0R3kb8yAvgMo9U8XI-8">
          <mxGeometry relative="1" as="geometry" />
        </mxCell>
        <mxCell id="aZw0R3kb8yAvgMo9U8XI-12" value="assigned" style="rhombus;whiteSpace=wrap;html=1;fillColor=#cdeb8b;strokeColor=#36393d;" vertex="1" parent="1">
          <mxGeometry x="270" y="420" width="130" height="60" as="geometry" />
        </mxCell>
        <mxCell id="aZw0R3kb8yAvgMo9U8XI-15" value="manages" style="rhombus;whiteSpace=wrap;html=1;fillColor=#cdeb8b;strokeColor=#36393d;" vertex="1" parent="1">
          <mxGeometry x="490" y="420" width="130" height="60" as="geometry" />
        </mxCell>
        <mxCell id="aZw0R3kb8yAvgMo9U8XI-19" value="1" style="text;html=1;align=center;verticalAlign=middle;resizable=0;points=[];autosize=1;strokeColor=none;fillColor=none;" vertex="1" parent="1">
          <mxGeometry x="307.5" y="480" width="25" height="26" as="geometry" />
        </mxCell>
        <mxCell id="aZw0R3kb8yAvgMo9U8XI-20" value="N" style="text;html=1;align=center;verticalAlign=middle;resizable=0;points=[];autosize=1;strokeColor=none;fillColor=none;" vertex="1" parent="1">
          <mxGeometry x="303" y="390" width="27" height="26" as="geometry" />
        </mxCell>
        <mxCell id="aZw0R3kb8yAvgMo9U8XI-21" value="1" style="text;html=1;align=center;verticalAlign=middle;resizable=0;points=[];autosize=1;strokeColor=none;fillColor=none;" vertex="1" parent="1">
          <mxGeometry x="557" y="376" width="25" height="26" as="geometry" />
        </mxCell>
        <mxCell id="aZw0R3kb8yAvgMo9U8XI-22" value="1" style="text;html=1;align=center;verticalAlign=middle;resizable=0;points=[];autosize=1;strokeColor=none;fillColor=none;" vertex="1" parent="1">
          <mxGeometry x="562" y="480" width="25" height="26" as="geometry" />
        </mxCell>
        <mxCell id="aZw0R3kb8yAvgMo9U8XI-43" style="edgeStyle=orthogonalEdgeStyle;rounded=0;orthogonalLoop=1;jettySize=auto;html=1;exitX=0.5;exitY=0;exitDx=0;exitDy=0;entryX=0.5;entryY=1;entryDx=0;entryDy=0;endArrow=none;endFill=0;shape=link;" edge="1" parent="1" source="aZw0R3kb8yAvgMo9U8XI-23" target="aZw0R3kb8yAvgMo9U8XI-42">
          <mxGeometry relative="1" as="geometry" />
        </mxCell>
        <mxCell id="aZw0R3kb8yAvgMo9U8XI-23" value="room" style="rounded=0;whiteSpace=wrap;html=1;fillColor=#e51400;fontColor=#ffffff;strokeColor=#B20000;" vertex="1" parent="1">
          <mxGeometry x="1013" y="425" width="120" height="60" as="geometry" />
        </mxCell>
        <mxCell id="aZw0R3kb8yAvgMo9U8XI-37" style="edgeStyle=orthogonalEdgeStyle;rounded=0;orthogonalLoop=1;jettySize=auto;html=1;exitX=0;exitY=0.5;exitDx=0;exitDy=0;entryX=1;entryY=0.5;entryDx=0;entryDy=0;endArrow=none;endFill=0;" edge="1" parent="1" source="aZw0R3kb8yAvgMo9U8XI-24" target="aZw0R3kb8yAvgMo9U8XI-23">
          <mxGeometry relative="1" as="geometry" />
        </mxCell>
        <mxCell id="aZw0R3kb8yAvgMo9U8XI-24" value="size" style="ellipse;whiteSpace=wrap;html=1;strokeColor=#B09500;fillColor=#FFF71A;fontColor=#000000;" vertex="1" parent="1">
          <mxGeometry x="1299" y="446" width="100" height="60" as="geometry" />
        </mxCell>
        <mxCell id="aZw0R3kb8yAvgMo9U8XI-38" style="edgeStyle=orthogonalEdgeStyle;rounded=0;orthogonalLoop=1;jettySize=auto;html=1;exitX=0;exitY=0.5;exitDx=0;exitDy=0;entryX=1;entryY=0.75;entryDx=0;entryDy=0;endArrow=none;endFill=0;" edge="1" parent="1" source="aZw0R3kb8yAvgMo9U8XI-27" target="aZw0R3kb8yAvgMo9U8XI-23">
          <mxGeometry relative="1" as="geometry" />
        </mxCell>
        <mxCell id="aZw0R3kb8yAvgMo9U8XI-27" value="max occupancy" style="ellipse;whiteSpace=wrap;html=1;strokeColor=#B09500;fillColor=#FFF71A;fontColor=#000000;" vertex="1" parent="1">
          <mxGeometry x="1283" y="526" width="100" height="60" as="geometry" />
        </mxCell>
        <mxCell id="aZw0R3kb8yAvgMo9U8XI-29" value="&lt;u&gt;ID&lt;/u&gt;" style="ellipse;whiteSpace=wrap;html=1;strokeColor=#B09500;fillColor=#FFF71A;fontColor=#000000;" vertex="1" parent="1">
          <mxGeometry x="1262" y="379" width="100" height="60" as="geometry" />
        </mxCell>
        <mxCell id="aZw0R3kb8yAvgMo9U8XI-34" style="edgeStyle=orthogonalEdgeStyle;rounded=0;orthogonalLoop=1;jettySize=auto;html=1;exitX=1;exitY=0.5;exitDx=0;exitDy=0;entryX=1;entryY=1;entryDx=0;entryDy=0;endArrow=none;endFill=0;" edge="1" parent="1" source="aZw0R3kb8yAvgMo9U8XI-32" target="aZw0R3kb8yAvgMo9U8XI-23">
          <mxGeometry relative="1" as="geometry" />
        </mxCell>
        <mxCell id="aZw0R3kb8yAvgMo9U8XI-35" style="edgeStyle=orthogonalEdgeStyle;rounded=0;orthogonalLoop=1;jettySize=auto;html=1;exitX=0;exitY=0.5;exitDx=0;exitDy=0;entryX=0;entryY=1;entryDx=0;entryDy=0;endArrow=none;endFill=0;" edge="1" parent="1" source="aZw0R3kb8yAvgMo9U8XI-32" target="aZw0R3kb8yAvgMo9U8XI-23">
          <mxGeometry relative="1" as="geometry" />
        </mxCell>
        <mxCell id="aZw0R3kb8yAvgMo9U8XI-32" value="combined" style="rhombus;whiteSpace=wrap;html=1;fillColor=#cdeb8b;strokeColor=#36393d;" vertex="1" parent="1">
          <mxGeometry x="1003" y="577" width="130" height="60" as="geometry" />
        </mxCell>
        <mxCell id="aZw0R3kb8yAvgMo9U8XI-36" style="edgeStyle=orthogonalEdgeStyle;rounded=0;orthogonalLoop=1;jettySize=auto;html=1;exitX=0;exitY=0.5;exitDx=0;exitDy=0;entryX=0.995;entryY=0.157;entryDx=0;entryDy=0;entryPerimeter=0;endArrow=none;endFill=0;" edge="1" parent="1" source="aZw0R3kb8yAvgMo9U8XI-29" target="aZw0R3kb8yAvgMo9U8XI-23">
          <mxGeometry relative="1" as="geometry" />
        </mxCell>
        <mxCell id="aZw0R3kb8yAvgMo9U8XI-39" value="1" style="text;html=1;align=center;verticalAlign=middle;resizable=0;points=[];autosize=1;strokeColor=none;fillColor=none;" vertex="1" parent="1">
          <mxGeometry x="942" y="814" width="25" height="26" as="geometry" />
        </mxCell>
        <mxCell id="aZw0R3kb8yAvgMo9U8XI-40" value="1" style="text;html=1;align=center;verticalAlign=middle;resizable=0;points=[];autosize=1;strokeColor=none;fillColor=none;" vertex="1" parent="1">
          <mxGeometry x="1123" y="554" width="25" height="26" as="geometry" />
        </mxCell>
        <mxCell id="aZw0R3kb8yAvgMo9U8XI-46" style="edgeStyle=orthogonalEdgeStyle;rounded=0;orthogonalLoop=1;jettySize=auto;html=1;exitX=0.75;exitY=0;exitDx=0;exitDy=0;entryX=0;entryY=0.5;entryDx=0;entryDy=0;" edge="1" parent="1" source="aZw0R3kb8yAvgMo9U8XI-41" target="aZw0R3kb8yAvgMo9U8XI-45">
          <mxGeometry relative="1" as="geometry" />
        </mxCell>
        <mxCell id="aZw0R3kb8yAvgMo9U8XI-41" value="building" style="rounded=0;whiteSpace=wrap;html=1;fillColor=#e51400;fontColor=#ffffff;strokeColor=#B20000;" vertex="1" parent="1">
          <mxGeometry x="1013" y="182" width="120" height="60" as="geometry" />
        </mxCell>
        <mxCell id="aZw0R3kb8yAvgMo9U8XI-44" style="edgeStyle=orthogonalEdgeStyle;rounded=0;orthogonalLoop=1;jettySize=auto;html=1;exitX=0.5;exitY=0;exitDx=0;exitDy=0;endArrow=none;endFill=0;" edge="1" parent="1" source="aZw0R3kb8yAvgMo9U8XI-42" target="aZw0R3kb8yAvgMo9U8XI-41">
          <mxGeometry relative="1" as="geometry" />
        </mxCell>
        <mxCell id="aZw0R3kb8yAvgMo9U8XI-42" value="belongs" style="rhombus;whiteSpace=wrap;html=1;fillColor=#cdeb8b;strokeColor=#36393d;" vertex="1" parent="1">
          <mxGeometry x="1008" y="296" width="130" height="60" as="geometry" />
        </mxCell>
        <mxCell id="aZw0R3kb8yAvgMo9U8XI-45" value="&lt;u&gt;building id&lt;/u&gt;" style="ellipse;whiteSpace=wrap;html=1;strokeColor=#B09500;fillColor=#FFF71A;fontColor=#000000;" vertex="1" parent="1">
          <mxGeometry x="1183" y="84" width="100" height="60" as="geometry" />
        </mxCell>
        <mxCell id="aZw0R3kb8yAvgMo9U8XI-50" style="edgeStyle=orthogonalEdgeStyle;rounded=0;orthogonalLoop=1;jettySize=auto;html=1;exitX=1;exitY=0.5;exitDx=0;exitDy=0;entryX=0;entryY=0.5;entryDx=0;entryDy=0;endArrow=none;endFill=0;" edge="1" parent="1" source="aZw0R3kb8yAvgMo9U8XI-48" target="aZw0R3kb8yAvgMo9U8XI-23">
          <mxGeometry relative="1" as="geometry" />
        </mxCell>
        <mxCell id="aZw0R3kb8yAvgMo9U8XI-48" value="reserve" style="rhombus;whiteSpace=wrap;html=1;fillColor=#cdeb8b;strokeColor=#36393d;" vertex="1" parent="1">
          <mxGeometry x="681" y="356" width="130" height="60" as="geometry" />
        </mxCell>
        <mxCell id="aZw0R3kb8yAvgMo9U8XI-51" value="N" style="text;html=1;align=center;verticalAlign=middle;resizable=0;points=[];autosize=1;strokeColor=none;fillColor=none;" vertex="1" parent="1">
          <mxGeometry x="1076" y="385" width="27" height="26" as="geometry" />
        </mxCell>
        <mxCell id="aZw0R3kb8yAvgMo9U8XI-52" value="1" style="text;html=1;align=center;verticalAlign=middle;resizable=0;points=[];autosize=1;strokeColor=none;fillColor=none;" vertex="1" parent="1">
          <mxGeometry x="1073" y="261" width="25" height="26" as="geometry" />
        </mxCell>
        <mxCell id="aZw0R3kb8yAvgMo9U8XI-53" value="1" style="text;html=1;align=center;verticalAlign=middle;resizable=0;points=[];autosize=1;strokeColor=none;fillColor=none;" vertex="1" parent="1">
          <mxGeometry x="656" y="359" width="25" height="26" as="geometry" />
        </mxCell>
        <mxCell id="aZw0R3kb8yAvgMo9U8XI-54" value="N" style="text;html=1;align=center;verticalAlign=middle;resizable=0;points=[];autosize=1;strokeColor=none;fillColor=none;" vertex="1" parent="1">
          <mxGeometry x="808" y="359" width="27" height="26" as="geometry" />
        </mxCell>
        <mxCell id="aZw0R3kb8yAvgMo9U8XI-59" style="edgeStyle=orthogonalEdgeStyle;rounded=0;orthogonalLoop=1;jettySize=auto;html=1;exitX=0.5;exitY=1;exitDx=0;exitDy=0;entryX=0.5;entryY=0;entryDx=0;entryDy=0;" edge="1" parent="1" source="aZw0R3kb8yAvgMo9U8XI-58" target="aZw0R3kb8yAvgMo9U8XI-48">
          <mxGeometry relative="1" as="geometry" />
        </mxCell>
        <mxCell id="aZw0R3kb8yAvgMo9U8XI-58" value="timeslot" style="rounded=0;whiteSpace=wrap;html=1;fillColor=#e51400;fontColor=#ffffff;strokeColor=#B20000;" vertex="1" parent="1">
          <mxGeometry x="686" y="194" width="120" height="60" as="geometry" />
        </mxCell>
        <mxCell id="aZw0R3kb8yAvgMo9U8XI-60" value="&lt;u&gt;time&lt;/u&gt;" style="ellipse;whiteSpace=wrap;html=1;strokeColor=#B09500;fillColor=#FFF71A;fontColor=#000000;" vertex="1" parent="1">
          <mxGeometry x="572" y="96" width="100" height="60" as="geometry" />
        </mxCell>
        <mxCell id="aZw0R3kb8yAvgMo9U8XI-61" style="edgeStyle=orthogonalEdgeStyle;rounded=0;orthogonalLoop=1;jettySize=auto;html=1;exitX=1;exitY=0.5;exitDx=0;exitDy=0;entryX=0.358;entryY=0.033;entryDx=0;entryDy=0;entryPerimeter=0;endArrow=none;endFill=0;" edge="1" parent="1" source="aZw0R3kb8yAvgMo9U8XI-60" target="aZw0R3kb8yAvgMo9U8XI-58">
          <mxGeometry relative="1" as="geometry" />
        </mxCell>
        <mxCell id="aZw0R3kb8yAvgMo9U8XI-64" style="edgeStyle=orthogonalEdgeStyle;rounded=0;orthogonalLoop=1;jettySize=auto;html=1;exitX=0.5;exitY=0;exitDx=0;exitDy=0;entryX=0;entryY=1;entryDx=0;entryDy=0;" edge="1" parent="1" source="aZw0R3kb8yAvgMo9U8XI-62" target="aZw0R3kb8yAvgMo9U8XI-48">
          <mxGeometry relative="1" as="geometry" />
        </mxCell>
        <mxCell id="aZw0R3kb8yAvgMo9U8XI-62" value="occasion" style="ellipse;whiteSpace=wrap;html=1;strokeColor=#B09500;fillColor=#FFF71A;fontColor=#000000;" vertex="1" parent="1">
          <mxGeometry x="636" y="466" width="100" height="60" as="geometry" />
        </mxCell>
        <mxCell id="aZw0R3kb8yAvgMo9U8XI-66" style="edgeStyle=orthogonalEdgeStyle;rounded=0;orthogonalLoop=1;jettySize=auto;html=1;exitX=0.5;exitY=0;exitDx=0;exitDy=0;entryX=1;entryY=1;entryDx=0;entryDy=0;" edge="1" parent="1" source="aZw0R3kb8yAvgMo9U8XI-65" target="aZw0R3kb8yAvgMo9U8XI-48">
          <mxGeometry relative="1" as="geometry" />
        </mxCell>
        <mxCell id="aZw0R3kb8yAvgMo9U8XI-65" value="num of people" style="ellipse;whiteSpace=wrap;html=1;strokeColor=#B09500;fillColor=#FFF71A;fontColor=#000000;" vertex="1" parent="1">
          <mxGeometry x="771.5" y="470" width="100" height="60" as="geometry" />
        </mxCell>
        <mxCell id="aZw0R3kb8yAvgMo9U8XI-67" value="M" style="text;html=1;align=center;verticalAlign=middle;resizable=0;points=[];autosize=1;strokeColor=none;fillColor=none;" vertex="1" parent="1">
          <mxGeometry x="749" y="292" width="28" height="26" as="geometry" />
        </mxCell>
        <mxCell id="aZw0R3kb8yAvgMo9U8XI-77" style="edgeStyle=orthogonalEdgeStyle;rounded=0;orthogonalLoop=1;jettySize=auto;html=1;exitX=1;exitY=0.5;exitDx=0;exitDy=0;entryX=0;entryY=0.5;entryDx=0;entryDy=0;endArrow=none;endFill=0;" edge="1" parent="1" source="aZw0R3kb8yAvgMo9U8XI-69" target="aZw0R3kb8yAvgMo9U8XI-76">
          <mxGeometry relative="1" as="geometry" />
        </mxCell>
        <mxCell id="aZw0R3kb8yAvgMo9U8XI-69" value="parking space" style="rounded=0;whiteSpace=wrap;html=1;fillColor=#FF0000;" vertex="1" parent="1">
          <mxGeometry x="-145" y="301" width="120" height="60" as="geometry" />
        </mxCell>
        <mxCell id="aZw0R3kb8yAvgMo9U8XI-72" style="edgeStyle=orthogonalEdgeStyle;rounded=0;orthogonalLoop=1;jettySize=auto;html=1;exitX=1;exitY=0.5;exitDx=0;exitDy=0;entryX=0;entryY=0.25;entryDx=0;entryDy=0;endArrow=none;endFill=0;" edge="1" parent="1" source="aZw0R3kb8yAvgMo9U8XI-71" target="aZw0R3kb8yAvgMo9U8XI-69">
          <mxGeometry relative="1" as="geometry" />
        </mxCell>
        <mxCell id="aZw0R3kb8yAvgMo9U8XI-71" value="&lt;u&gt;ID&lt;/u&gt;" style="ellipse;whiteSpace=wrap;html=1;strokeColor=#B09500;fillColor=#FFF71A;fontColor=#000000;" vertex="1" parent="1">
          <mxGeometry x="-304" y="224" width="100" height="60" as="geometry" />
        </mxCell>
        <mxCell id="aZw0R3kb8yAvgMo9U8XI-74" style="edgeStyle=orthogonalEdgeStyle;rounded=0;orthogonalLoop=1;jettySize=auto;html=1;exitX=1;exitY=0.5;exitDx=0;exitDy=0;entryX=0;entryY=0.5;entryDx=0;entryDy=0;endArrow=none;endFill=0;" edge="1" parent="1" source="aZw0R3kb8yAvgMo9U8XI-73" target="aZw0R3kb8yAvgMo9U8XI-69">
          <mxGeometry relative="1" as="geometry" />
        </mxCell>
        <mxCell id="aZw0R3kb8yAvgMo9U8XI-73" value="license plate" style="ellipse;whiteSpace=wrap;html=1;strokeColor=#B09500;fillColor=#FFF71A;fontColor=#000000;" vertex="1" parent="1">
          <mxGeometry x="-304" y="360" width="100" height="60" as="geometry" />
        </mxCell>
        <mxCell id="aZw0R3kb8yAvgMo9U8XI-78" style="edgeStyle=orthogonalEdgeStyle;rounded=0;orthogonalLoop=1;jettySize=auto;html=1;exitX=1;exitY=0.5;exitDx=0;exitDy=0;entryX=0;entryY=0.5;entryDx=0;entryDy=0;endArrow=none;endFill=0;" edge="1" parent="1" source="aZw0R3kb8yAvgMo9U8XI-76" target="aZw0R3kb8yAvgMo9U8XI-1">
          <mxGeometry relative="1" as="geometry" />
        </mxCell>
        <mxCell id="aZw0R3kb8yAvgMo9U8XI-76" value="assigned" style="rhombus;whiteSpace=wrap;html=1;fillColor=#cdeb8b;strokeColor=#36393d;" vertex="1" parent="1">
          <mxGeometry x="46" y="299" width="130" height="60" as="geometry" />
        </mxCell>
        <mxCell id="aZw0R3kb8yAvgMo9U8XI-79" value="1" style="text;html=1;align=center;verticalAlign=middle;resizable=0;points=[];autosize=1;strokeColor=none;fillColor=none;" vertex="1" parent="1">
          <mxGeometry x="24" y="301" width="25" height="26" as="geometry" />
        </mxCell>
        <mxCell id="aZw0R3kb8yAvgMo9U8XI-80" value="1" style="text;html=1;align=center;verticalAlign=middle;resizable=0;points=[];autosize=1;strokeColor=none;fillColor=none;" vertex="1" parent="1">
          <mxGeometry x="173" y="302" width="25" height="26" as="geometry" />
        </mxCell>
      </root>
    </mxGraphModel>
  </diagram>
</mxfile>
